<?xml version="1.0" standalone="no"?>
<!DOCTYPE svg PUBLIC "-//W3C//DTD SVG 20010904//EN"
 "http://www.w3.org/TR/2001/REC-SVG-20010904/DTD/svg10.dtd">
<svg version="1.0" xmlns="http://www.w3.org/2000/svg"
 width="466.000000pt" height="396.000000pt" viewBox="0 0 466.000000 396.000000"
 preserveAspectRatio="xMidYMid meet">

<g transform="translate(0.000000,396.000000) scale(0.100000,-0.100000)"
fill="#000000" stroke="none">
<path d="M2307 3515 c-394 -57 -742 -274 -951 -594 -183 -278 -269 -600 -237
-893 73 -680 567 -1176 1250 -1254 123 -15 147 -14 267 0 462 55 848 305 1067
691 146 257 212 565 177 832 -102 783 -807 1329 -1573 1218z m360 -340 c17 -4
42 -18 54 -31 30 -31 54 -30 128 6 86 43 96 35 104 -72 20 -267 21 -327 2
-348 -10 -11 -25 -20 -34 -20 -18 0 -71 49 -71 67 0 7 -13 27 -29 45 -15 18
-35 47 -44 63 -24 45 -167 188 -209 208 -20 9 -55 17 -77 17 -28 0 -44 5 -47
15 -8 20 -30 19 -38 -1 -4 -11 -13 -14 -31 -10 -32 8 -139 -45 -156 -76 -7
-13 -21 -29 -32 -37 -48 -34 -72 -155 -47 -241 12 -42 106 -140 135 -140 12 0
25 -4 30 -9 10 -8 212 -43 327 -56 31 -3 73 -15 94 -26 21 -10 45 -19 54 -19
42 0 187 -120 215 -177 10 -21 22 -46 27 -57 19 -37 38 -112 44 -173 9 -81
-20 -231 -52 -279 -13 -19 -24 -37 -24 -40 0 -3 -19 -30 -41 -60 -43 -56 -132
-134 -154 -134 -6 0 -20 -9 -30 -20 -12 -13 -31 -20 -57 -20 -25 0 -45 -7 -58
-20 -18 -18 -33 -20 -155 -20 -74 0 -144 4 -157 9 -13 5 -43 15 -68 22 -25 7
-57 24 -72 37 -37 34 -86 26 -139 -22 -41 -38 -78 -46 -99 -21 -8 10 -13 76
-16 207 -2 106 -6 205 -9 220 -3 21 1 32 20 44 32 21 59 11 87 -33 13 -21 31
-49 40 -63 10 -14 21 -32 25 -40 13 -29 82 -116 144 -183 60 -65 68 -69 134
-85 216 -50 374 20 461 203 27 56 26 194 -2 250 -21 45 -58 95 -69 95 -4 0
-20 11 -37 25 -17 14 -42 25 -59 25 -16 0 -40 6 -52 14 -12 8 -69 21 -127 30
-249 37 -273 42 -288 65 -9 13 -25 21 -42 21 -15 0 -35 9 -45 20 -10 11 -26
22 -36 25 -29 9 -102 123 -116 180 -26 104 -33 180 -22 246 22 136 116 268
234 324 33 16 71 37 84 47 22 17 41 18 195 15 94 -2 185 -8 203 -12z m-643
-1881 c9 -24 7 -54 -3 -54 -5 0 -11 10 -13 23 -4 27 -32 29 -36 2 -2 -12 9
-32 28 -50 40 -38 43 -91 5 -101 -31 -8 -55 10 -55 42 0 29 16 32 23 4 7 -28
37 -26 37 3 0 14 -11 28 -30 39 -50 29 -38 108 16 108 12 0 25 -7 28 -16z m69
-30 l24 -47 12 47 c7 29 16 46 24 43 16 -5 22 -176 7 -191 -7 -7 -10 8 -10 50
l0 59 -20 -25 c-20 -27 -21 -27 -37 10 -10 22 -12 19 -12 -32 -1 -31 -5 -60
-11 -63 -6 -4 -10 30 -10 94 0 56 2 101 5 101 2 0 15 -21 28 -46z m195 34 c5
-7 13 -29 17 -48 4 -19 13 -38 19 -42 8 -6 8 -10 0 -15 -6 -5 -14 -25 -18 -46
-8 -43 -26 -41 -26 4 0 22 -5 29 -20 29 -16 0 -20 -7 -20 -30 0 -16 -4 -30
-10 -30 -5 0 -10 11 -10 25 0 16 -6 25 -15 25 -8 0 -15 4 -15 9 0 5 7 11 15
15 10 4 15 19 15 49 0 24 5 48 12 55 16 16 43 15 56 0z m143 -9 c6 -13 9 -40
6 -63 -4 -26 -1 -50 8 -66 8 -14 14 -31 15 -37 0 -24 -16 -13 -33 22 -11 23
-24 35 -37 35 -16 0 -20 -7 -20 -35 0 -19 -4 -35 -10 -35 -6 0 -10 40 -10 100
l0 100 35 0 c25 0 37 -6 46 -21z m149 12 c0 -5 -9 -11 -20 -14 -18 -5 -20 -14
-20 -92 0 -55 -4 -84 -10 -80 -5 3 -10 44 -10 91 0 77 -2 84 -20 84 -11 0 -20
5 -20 10 0 6 23 10 50 10 28 0 50 -4 50 -9z m158 -4 c6 -7 14 -47 17 -90 7
-73 6 -77 -15 -85 -12 -5 -34 -6 -49 -4 l-26 4 2 91 c1 51 3 93 3 95 1 8 60 0
68 -11z m136 -3 c9 -8 16 -28 16 -44 0 -17 7 -33 18 -40 16 -10 16 -10 0 -20
-12 -7 -18 -23 -18 -46 0 -21 -4 -33 -10 -29 -5 3 -10 19 -10 36 0 22 -5 29
-20 29 -16 0 -20 -7 -20 -30 0 -16 -4 -30 -10 -30 -5 0 -10 11 -10 25 0 16 -6
25 -15 25 -8 0 -15 4 -15 9 0 5 7 11 15 15 10 4 15 19 15 49 0 62 30 86 64 51z
m97 -19 c7 -19 16 -35 20 -35 4 0 13 16 19 35 6 19 16 35 21 35 13 0 11 -14
-11 -72 -11 -29 -20 -70 -20 -90 0 -21 -4 -38 -10 -38 -5 0 -10 20 -10 44 0
24 -9 65 -20 91 -22 52 -24 65 -11 65 5 0 15 -16 22 -35z"/>
<path d="M2247 1274 c-4 -4 -7 -22 -7 -41 0 -27 4 -33 21 -33 17 0 20 5 17 37
-3 35 -17 51 -31 37z"/>
<path d="M2370 1245 c0 -37 3 -45 19 -45 21 0 33 33 25 67 -4 14 -14 23 -25
23 -16 0 -19 -8 -19 -45z"/>
<path d="M2694 1277 c-10 -27 0 -62 19 -65 16 -3 18 2 15 34 -3 39 -24 57 -34
31z"/>
<path d="M2690 1166 c0 -21 5 -26 26 -26 21 0 25 4 22 23 -2 14 -11 23 -25 25
-19 3 -23 -1 -23 -22z"/>
<path d="M2837 1273 c-4 -3 -7 -21 -7 -40 0 -26 4 -33 20 -33 14 0 20 7 20 24
0 44 -16 67 -33 49z"/>
</g>
</svg>
